<svg width="184" height="184" viewBox="0 0 184 184" fill="none" xmlns="http://www.w3.org/2000/svg">
<path d="M148.274 111.09L140.608 98.3635C138.998 95.5268 137.541 90.1602 137.541 87.0168V67.6202C137.541 49.6035 126.961 34.0402 111.704 26.7568C107.718 19.7035 100.358 15.3335 91.9242 15.3335C83.5675 15.3335 76.0542 19.8568 72.0675 26.9868C57.1175 34.4235 46.7675 49.8335 46.7675 67.6202V87.0168C46.7675 90.1602 45.3109 95.5268 43.7009 98.2868L35.9575 111.09C32.8909 116.227 32.2009 121.9 34.1175 127.114C35.9575 132.25 40.3275 136.237 46.0009 138.154C60.8742 143.214 76.5142 145.667 92.1542 145.667C107.794 145.667 123.434 143.214 138.308 138.23C143.674 136.467 147.814 132.404 149.808 127.114C151.801 121.824 151.264 115.997 148.274 111.09Z" fill="#9D22C2"/>
<path d="M113.698 153.41C110.478 162.304 101.968 168.667 92.0009 168.667C85.9442 168.667 79.9642 166.214 75.7475 161.844C73.2942 159.544 71.4542 156.477 70.3809 153.333C71.3775 153.487 72.3742 153.563 73.4475 153.717C75.2109 153.947 77.0509 154.177 78.8909 154.33C83.2609 154.713 87.7075 154.943 92.1542 154.943C96.5242 154.943 100.894 154.713 105.188 154.33C106.798 154.177 108.408 154.1 109.941 153.87C111.168 153.717 112.394 153.563 113.698 153.41Z" fill="#9D22C2"/>
</svg>
