<svg width="100" height="100" viewBox="0 0 100 100" fill="none" xmlns="http://www.w3.org/2000/svg">
<path d="M80.5834 60.375L76.4168 53.4584C75.5418 51.9167 74.7501 49 74.7501 47.2917V36.75C74.7501 26.9584 69.0001 18.5 60.7084 14.5417C58.5418 10.7084 54.5418 8.33337 49.9584 8.33337C45.4168 8.33337 41.3334 10.7917 39.1668 14.6667C31.0418 18.7084 25.4168 27.0834 25.4168 36.75V47.2917C25.4168 49 24.6251 51.9167 23.7501 53.4167L19.5418 60.375C17.8751 63.1667 17.5001 66.25 18.5418 69.0834C19.5418 71.875 21.9168 74.0417 25.0001 75.0834C33.0834 77.8334 41.5834 79.1667 50.0834 79.1667C58.5834 79.1667 67.0834 77.8334 75.1668 75.125C78.0834 74.1667 80.3334 71.9584 81.4168 69.0834C82.5001 66.2084 82.2084 63.0417 80.5834 60.375Z" fill="#7A1AD6"/>
<path d="M61.7917 83.375C60.0417 88.2083 55.4167 91.6666 50 91.6666C46.7083 91.6666 43.4583 90.3333 41.1667 87.9583C39.8333 86.7083 38.8333 85.0416 38.25 83.3333C38.7917 83.4166 39.3333 83.4583 39.9167 83.5416C40.875 83.6666 41.875 83.7916 42.875 83.875C45.25 84.0833 47.6667 84.2083 50.0833 84.2083C52.4583 84.2083 54.8333 84.0833 57.1667 83.875C58.0417 83.7916 58.9167 83.75 59.75 83.625C60.4167 83.5416 61.0833 83.4583 61.7917 83.375Z" fill="#7A1AD6"/>
</svg>
