<svg width="64" height="64" viewBox="0 0 64 64" fill="none" xmlns="http://www.w3.org/2000/svg">
<rect width="64" height="64" rx="32" fill="#7A1AD6"/>
<path d="M44.8933 25.2662C44.04 22.3729 41.6267 19.9595 38.7333 19.1062C36.5333 18.4662 35.0133 18.5195 33.96 19.3062C32.6933 20.2529 32.5467 21.9595 32.5467 23.1729V26.4929C32.5467 29.7729 34.04 31.4395 36.9733 31.4395H40.8C42 31.4395 43.72 31.2929 44.6667 30.0262C45.48 28.9862 45.5467 27.4662 44.8933 25.2662Z" fill="white"/>
<path d="M41.2133 33.8135C40.8667 33.4135 40.36 33.1869 39.84 33.1869H35.0667C32.72 33.1869 30.8133 31.2802 30.8133 28.9335V24.1602C30.8133 23.6402 30.5867 23.1335 30.1867 22.7869C29.8 22.4402 29.2667 22.2802 28.76 22.3469C25.6267 22.7469 22.7467 24.4669 20.8667 27.0535C18.9733 29.6535 18.28 32.8269 18.88 36.0002C19.7467 40.5869 23.4133 44.2535 28.0133 45.1202C28.7467 45.2669 29.48 45.3335 30.2133 45.3335C32.6267 45.3335 34.96 44.5869 36.9467 43.1335C39.5333 41.2535 41.2533 38.3735 41.6533 35.2402C41.72 34.7202 41.56 34.2002 41.2133 33.8135Z" fill="white"/>
</svg>
