<svg width="24" height="25" viewBox="0 0 24 25" fill="none" xmlns="http://www.w3.org/2000/svg">
<path d="M7 8.5H4C2.9 8.5 2 7.6 2 6.5V4.5C2 3.4 2.9 2.5 4 2.5H7C8.1 2.5 9 3.4 9 4.5V6.5C9 7.6 8.1 8.5 7 8.5Z" fill="white"/>
<path d="M20.8 7.5H17.2C16.54 7.5 16 6.96 16 6.3V4.7C16 4.04 16.54 3.5 17.2 3.5H20.8C21.46 3.5 22 4.04 22 4.7V6.3C22 6.96 21.46 7.5 20.8 7.5Z" fill="white"/>
<path d="M20.8 15H17.2C16.54 15 16 14.46 16 13.8V12.2C16 11.54 16.54 11 17.2 11H20.8C21.46 11 22 11.54 22 12.2V13.8C22 14.46 21.46 15 20.8 15Z" fill="white"/>
<path opacity="0.96" d="M16 13.75C16.41 13.75 16.75 13.41 16.75 13C16.75 12.59 16.41 12.25 16 12.25H13.25V6.25H16C16.41 6.25 16.75 5.91 16.75 5.5C16.75 5.09 16.41 4.75 16 4.75H9C8.59 4.75 8.25 5.09 8.25 5.5C8.25 5.91 8.59 6.25 9 6.25H11.75V18.5C11.75 20.02 12.98 21.25 14.5 21.25H16C16.41 21.25 16.75 20.91 16.75 20.5C16.75 20.09 16.41 19.75 16 19.75H14.5C13.81 19.75 13.25 19.19 13.25 18.5V13.75H16Z" fill="white"/>
<path d="M20.8 22.5H17.2C16.54 22.5 16 21.96 16 21.3V19.7C16 19.04 16.54 18.5 17.2 18.5H20.8C21.46 18.5 22 19.04 22 19.7V21.3C22 21.96 21.46 22.5 20.8 22.5Z" fill="white"/>
</svg>
