<svg width="64" height="64" viewBox="0 0 64 64" fill="none" xmlns="http://www.w3.org/2000/svg">
<rect width="64" height="64" rx="32" fill="#7A1AD6"/>
<path d="M31 26.7734V30.5868L29.6533 30.1201C28.9733 29.8801 28.56 29.6534 28.56 28.4934C28.56 27.5468 29.2667 26.7734 30.1333 26.7734H31Z" fill="white"/>
<path d="M35.44 35.5064C35.44 36.4531 34.7333 37.2264 33.8667 37.2264H33V33.4131L34.3467 33.8798C35.0267 34.1198 35.44 34.3464 35.44 35.5064Z" fill="white"/>
<path d="M37.5867 18.667H26.4134C21.56 18.667 18.6667 21.5603 18.6667 26.4137V37.587C18.6667 42.4403 21.56 45.3337 26.4134 45.3337H37.5867C42.44 45.3337 45.3334 42.4403 45.3334 37.587V26.4137C45.3334 21.5603 42.44 18.667 37.5867 18.667ZM35.0134 32.0003C36.0534 32.3603 37.44 33.1203 37.44 35.507C37.44 37.5603 35.84 39.227 33.8667 39.227H33V40.0003C33 40.547 32.5467 41.0003 32 41.0003C31.4534 41.0003 31 40.547 31 40.0003V39.227H30.52C28.3334 39.227 26.56 37.3737 26.56 35.107C26.56 34.5603 27 34.107 27.56 34.107C28.1067 34.107 28.56 34.5603 28.56 35.107C28.56 36.2803 29.44 37.227 30.52 37.227H31V32.707L28.9867 32.0003C27.9467 31.6403 26.56 30.8803 26.56 28.4937C26.56 26.4403 28.16 24.7737 30.1334 24.7737H31V24.0003C31 23.4537 31.4534 23.0003 32 23.0003C32.5467 23.0003 33 23.4537 33 24.0003V24.7737H33.48C35.6667 24.7737 37.44 26.627 37.44 28.8937C37.44 29.4403 37 29.8937 36.44 29.8937C35.8934 29.8937 35.44 29.4403 35.44 28.8937C35.44 27.7203 34.56 26.7737 33.48 26.7737H33V31.2937L35.0134 32.0003Z" fill="white"/>
</svg>
