<svg width="126" height="123" viewBox="0 0 126 123" fill="none" xmlns="http://www.w3.org/2000/svg">
<path d="M63.1052 106C89.9794 106 111.765 84.2753 111.765 57.4765C111.765 30.6778 89.9794 8.95312 63.1052 8.95312C36.2311 8.95312 14.4453 30.6778 14.4453 57.4765C14.4453 84.2753 36.2311 106 63.1052 106Z" fill="#EAEEF9"/>
<g filter="url(#filter0_d_332_4633)">
<path d="M109.904 41.2698V87.45C109.904 87.6453 109.904 87.7429 109.904 87.9382C109.806 90.5743 108.533 92.9174 106.673 94.4796C105.009 95.9441 102.855 96.8228 100.505 96.8228H25.9975C24.3331 96.8228 22.8644 96.4322 21.4937 95.6512C20.9063 95.3583 20.3189 94.9677 19.8293 94.4796C18.7523 93.6009 17.8712 92.4293 17.3816 91.0624C16.99 90.0861 16.6963 89.1098 16.6963 88.0358V41.2698C16.6963 41.2698 20.6126 37.9503 26.1933 33.3615C31.9698 28.4799 39.6066 22.2314 46.2643 16.6664C50.0827 13.4445 49.691 13.835 55.5655 8.85575C60.0692 5.04808 66.629 5.04808 71.1327 8.85575C72.3076 9.83208 73.4825 10.906 74.6574 11.8824C77.1051 13.835 79.8465 16.1782 82.6858 18.5214C88.6581 23.5007 95.2179 28.9681 100.407 33.2639C105.694 37.6574 109.512 40.8793 109.904 41.2698Z" fill="#7A1AD6"/>
</g>
<path d="M100.408 33.2638V49.8614L84.155 59.6246L79.2596 62.5536L68.9793 68.7045L64.084 71.6334L62.0279 72.9027L60.0698 71.6334L55.4681 68.7045L45.6774 62.5536L41.0758 59.6246L25.998 50.1543V33.3614C31.7746 28.4798 39.4113 22.2313 46.069 16.6663L82.4905 18.5213C88.7566 23.5005 95.3164 28.968 100.408 33.2638Z" fill="#922BB0"/>
<path d="M97.1747 20.0828V49.1773L82.2928 58.0618L77.8869 60.6979L68.4879 66.263L64.082 68.8991L62.2218 69.973L60.4595 68.8991L56.2494 66.263L47.3399 60.6979L43.1299 58.0618L29.4229 49.4702V20.0828C29.4229 17.0561 31.8705 14.5177 35.0036 14.5177H91.594C94.6291 14.5177 97.1747 17.0561 97.1747 20.0828Z" fill="white"/>
<path d="M85.0343 36.0943H43.2279C42.5425 36.0943 41.9551 35.5085 41.9551 34.7275C41.9551 33.9464 42.5425 33.3606 43.2279 33.3606H85.0343C85.7196 33.3606 86.3071 33.9464 86.3071 34.7275C86.3071 35.5085 85.7196 36.0943 85.0343 36.0943Z" fill="#E7EBF2"/>
<path d="M85.0343 44.2955H43.2279C42.5425 44.2955 41.9551 43.7097 41.9551 42.9286C41.9551 42.1476 42.5425 41.5618 43.2279 41.5618H85.0343C85.7196 41.5618 86.3071 42.1476 86.3071 42.9286C86.3071 43.7097 85.7196 44.2955 85.0343 44.2955Z" fill="#E7EBF2"/>
<path d="M85.0343 52.4967H43.2279C42.5425 52.4967 41.9551 51.9109 41.9551 51.1298C41.9551 50.3487 42.5425 49.7629 43.2279 49.7629H85.0343C85.7196 49.7629 86.3071 50.3487 86.3071 51.1298C86.3071 51.9109 85.7196 52.4967 85.0343 52.4967Z" fill="#E7EBF2"/>
<path d="M82.2928 58.0617L77.887 60.6978H47.3399L43.1299 58.0617H43.2278H82.2928Z" fill="#E7EBF2"/>
<path d="M68.4884 66.263L64.0826 68.9967H60.46L56.25 66.263H68.4884Z" fill="#E7EBF2"/>
<path d="M76.0259 26.7218H52.3324C51.647 26.7218 51.0596 26.136 51.0596 25.3549C51.0596 24.5738 51.647 23.988 52.3324 23.988H76.0259C76.7113 23.988 77.2987 24.5738 77.2987 25.3549C77.2987 26.136 76.7113 26.7218 76.0259 26.7218Z" fill="url(#paint0_linear_332_4633)"/>
<path opacity="0.67" d="M17.0879 41.0743L61.8315 44.0033L109.219 41.0743L107.456 49.5684C107.456 49.5684 62.9085 72.8049 63.2022 72.8049C63.4959 72.8049 17.1858 45.2725 17.1858 45.2725L17.0879 41.0743Z" fill="url(#paint1_linear_332_4633)"/>
<path d="M109.904 41.2697V87.9381C109.806 90.5741 108.533 92.9173 106.673 94.4794C105.009 95.9439 102.855 96.8226 100.505 96.8226H25.9975C24.3331 96.8226 22.8644 96.4321 21.4937 95.651C20.9063 95.3581 20.3189 94.9676 19.8293 94.4794C18.7523 93.6008 17.8712 92.4292 17.3816 91.0623C16.99 90.086 16.6963 89.1097 16.6963 88.0357V87.9381V41.2697L58.4048 67.3376L62.0274 69.5831L63.3001 68.8021L64.475 68.1186L109.904 41.2697Z" fill="#738DFF"/>
<path d="M106.771 94.4794C105.107 95.9439 102.953 96.8226 100.603 96.8226H25.9975C24.3331 96.8226 22.8644 96.4321 21.4937 95.651C20.9063 95.3581 20.3189 94.9676 19.8293 94.4794C18.7523 93.6008 17.8712 92.4292 17.3816 91.0623C16.99 90.086 16.6963 89.1097 16.6963 88.0357V87.9381V41.2697L21.5917 44.1986L63.3001 68.8997L64.475 69.5831L64.5729 69.6808L101.974 91.7457L106.771 94.4794Z" fill="url(#paint2_linear_332_4633)"/>
<path d="M64.4752 68.1186V71.3405L21.4939 95.651C20.9065 95.3581 20.3191 94.9676 19.8295 94.4794C18.7525 93.6007 17.8714 92.4291 17.3818 91.0623L59.1882 66.3612L62.8108 68.6068L63.3003 68.802L64.4752 68.1186Z" fill="url(#paint3_linear_332_4633)"/>
<path d="M64.4752 68.1186V71.3405L21.4939 95.651C20.9065 95.3581 20.3191 94.9676 19.8295 94.4794C18.7525 93.6007 17.8714 92.4291 17.3818 91.0623L59.1882 66.3612L62.8108 68.6068L63.3003 68.802L64.4752 68.1186Z" fill="url(#paint4_linear_332_4633)"/>
<path d="M16.6963 41.2697L63.3001 68.8997" stroke="#A6BDFF" stroke-width="0.999999" stroke-miterlimit="10"/>
<path d="M109.904 41.2697V87.9381C109.806 90.5741 108.533 92.9173 106.673 94.4794C105.008 95.9439 102.854 96.8226 100.505 96.8226H25.9973C24.3328 96.8226 22.8642 96.4321 21.4935 95.651C20.9061 95.3581 20.3186 94.9676 19.8291 94.4794L24.6266 91.6481L62.0271 69.5831L63.2999 68.8021L64.4748 68.1186L105.008 44.101L109.904 41.2697Z" fill="url(#paint5_linear_332_4633)"/>
<path d="M109.904 41.2697V87.9381C109.806 90.5741 108.533 92.9173 106.673 94.4794C105.008 95.9439 102.854 96.8226 100.505 96.8226H25.9973C24.3328 96.8226 22.8642 96.4321 21.4935 95.651C20.9061 95.3581 20.3186 94.9676 19.8291 94.4794L24.6266 91.6481L62.0271 69.5831L63.2999 68.8021L64.4748 68.1186L105.008 44.101L109.904 41.2697Z" fill="url(#paint6_linear_332_4633)"/>
<path d="M109.904 41.2697L64.4748 68.1186L63.2999 68.8021L62.0271 69.5831L19.8291 94.4794" stroke="#99B3FF" stroke-width="0.999999" stroke-miterlimit="10"/>
<path d="M98.743 73.8788H73.9725C73.385 73.8788 72.8955 73.3907 72.8955 72.8049C72.8955 72.2191 73.385 71.7309 73.9725 71.7309H98.743C99.3305 71.7309 99.82 72.2191 99.82 72.8049C99.82 73.3907 99.3305 73.8788 98.743 73.8788Z" fill="white"/>
<path d="M98.743 81.0061H73.9725C73.385 81.0061 72.8955 80.5179 72.8955 79.9321C72.8955 79.3463 73.385 78.8582 73.9725 78.8582H98.743C99.3305 78.8582 99.82 79.3463 99.82 79.9321C99.82 80.5179 99.3305 81.0061 98.743 81.0061Z" fill="white"/>
<path d="M114.409 36.876C116.464 36.876 118.129 35.215 118.129 33.166C118.129 31.117 116.464 29.4559 114.409 29.4559C112.354 29.4559 110.688 31.117 110.688 33.166C110.688 35.215 112.354 36.876 114.409 36.876Z" fill="#EAEEF9"/>
<path d="M16.599 23.3052C17.9509 23.3052 19.0467 22.2124 19.0467 20.8644C19.0467 19.5164 17.9509 18.4236 16.599 18.4236C15.2472 18.4236 14.1514 19.5164 14.1514 20.8644C14.1514 22.2124 15.2472 23.3052 16.599 23.3052Z" fill="#EAEEF9"/>
<path d="M5.53552 29.5536C6.45475 29.5536 7.19994 28.8105 7.19994 27.8939C7.19994 26.9772 6.45475 26.2341 5.53552 26.2341C4.61628 26.2341 3.87109 26.9772 3.87109 27.8939C3.87109 28.8105 4.61628 29.5536 5.53552 29.5536Z" fill="#EAEEF9"/>
<path d="M110.1 21.1572C110.965 21.1572 111.666 20.4578 111.666 19.5951C111.666 18.7323 110.965 18.033 110.1 18.033C109.235 18.033 108.533 18.7323 108.533 19.5951C108.533 20.4578 109.235 21.1572 110.1 21.1572Z" fill="#EAEEF9"/>
<path d="M116.366 72.0239C117.231 72.0239 117.933 71.3245 117.933 70.4618C117.933 69.599 117.231 68.8997 116.366 68.8997C115.501 68.8997 114.8 69.599 114.8 70.4618C114.8 71.3245 115.501 72.0239 116.366 72.0239Z" fill="#EAEEF9"/>
<path opacity="0.3" d="M105.01 44.101V48.9826L109.905 46.5418V41.2697L105.01 44.101ZM105.01 68.2163V76.1245L109.905 73.6837V65.7754L105.01 68.2163ZM105.01 81.6896V87.7428C104.912 88.4262 104.716 89.2073 104.324 89.7931C104.226 89.8907 104.226 89.9883 104.128 90.086L109.905 87.157V79.2488L105.01 81.6896ZM103.835 95.8463L102.366 96.6274C104.031 96.3345 105.401 95.5534 106.674 94.5771C106.674 94.5771 106.674 94.5771 106.772 94.5771C106.87 94.5771 106.87 94.4794 106.968 94.3818L103.835 95.8463ZM16.6973 81.3967V87.9381V88.0357C16.6973 88.4262 16.7952 88.8167 16.8931 89.2073L21.5926 86.7665V78.8582L16.6973 81.3967ZM16.6973 54.2548V62.163L21.5926 59.7222V51.814L16.6973 54.2548ZM16.6973 41.2697V48.6897L21.5926 46.2489V44.1986L16.6973 41.2697ZM16.6973 67.8257V75.734L21.5926 73.2932V65.3849L16.6973 67.8257ZM25.9985 91.941C25.5089 91.941 25.0194 91.8434 24.6278 91.7457C24.334 91.6481 24.1382 91.5505 23.8445 91.4528C23.8445 91.4528 23.8445 91.4528 23.7466 91.4528L19.047 93.8936C19.3408 94.1865 19.5366 94.3818 19.8303 94.6747C20.3198 95.1629 20.9073 95.4558 21.4947 95.8463C21.8864 96.1392 22.3759 96.3345 22.8654 96.4321L31.9708 92.0386H25.9985V91.941ZM44.3071 91.941L34.0269 96.8226H45.1883L55.4685 91.941H44.3071ZM67.609 91.941L57.3288 96.8226H68.4902L78.7705 91.941H67.609ZM91.0089 91.941L80.7286 96.8226H89.7361L100.016 91.941H91.0089ZM105.01 54.6453V62.5536L109.905 60.1128V52.2045L105.01 54.6453Z" fill="#7A1AD6"/>
<path d="M103.834 95.8463L106.869 94.2842C106.771 94.3818 106.771 94.3818 106.673 94.4794C106.673 94.4794 106.673 94.4794 106.575 94.4794L103.834 95.8463Z" fill="#7A1AD6"/>
<defs>
<filter id="filter0_d_332_4633" x="0.696312" y="8.58307e-06" width="125.208" height="122.823" filterUnits="userSpaceOnUse" color-interpolation-filters="sRGB">
<feFlood flood-opacity="0" result="BackgroundImageFix"/>
<feColorMatrix in="SourceAlpha" type="matrix" values="0 0 0 0 0 0 0 0 0 0 0 0 0 0 0 0 0 0 127 0" result="hardAlpha"/>
<feOffset dy="9.99999"/>
<feGaussianBlur stdDeviation="7.99999"/>
<feColorMatrix type="matrix" values="0 0 0 0 0.1125 0 0 0 0 0.295916 0 0 0 0 1 0 0 0 0.22 0"/>
<feBlend mode="normal" in2="BackgroundImageFix" result="effect1_dropShadow_332_4633"/>
<feBlend mode="normal" in="SourceGraphic" in2="effect1_dropShadow_332_4633" result="shape"/>
</filter>
<linearGradient id="paint0_linear_332_4633" x1="51.0797" y1="25.3745" x2="77.2339" y2="25.3745" gradientUnits="userSpaceOnUse">
<stop stop-color="#FF66A9"/>
<stop offset="1" stop-color="#F53689"/>
</linearGradient>
<linearGradient id="paint1_linear_332_4633" x1="63.0968" y1="82.7976" x2="63.0968" y2="43.1755" gradientUnits="userSpaceOnUse">
<stop stop-color="#4F6AFF"/>
<stop offset="1" stop-color="#657EFF" stop-opacity="0"/>
</linearGradient>
<linearGradient id="paint2_linear_332_4633" x1="17.7433" y1="69.0206" x2="108.644" y2="69.0206" gradientUnits="userSpaceOnUse">
<stop stop-color="#7A1AD6"/>
<stop offset="1" stop-color="#B063F9"/>
</linearGradient>
<linearGradient id="paint3_linear_332_4633" x1="43.6274" y1="83.6963" x2="39.9765" y2="78.3527" gradientUnits="userSpaceOnUse">
<stop stop-color="#4F6AFF"/>
<stop offset="1" stop-color="#657EFF" stop-opacity="0"/>
</linearGradient>
<linearGradient id="paint4_linear_332_4633" x1="17.9292" y1="80.9926" x2="65.4547" y2="80.9926" gradientUnits="userSpaceOnUse">
<stop stop-color="#7A1AD6"/>
<stop offset="1" stop-color="#B063F9"/>
</linearGradient>
<linearGradient id="paint5_linear_332_4633" x1="106.083" y1="69.0206" x2="16.9117" y2="69.0206" gradientUnits="userSpaceOnUse">
<stop stop-color="#83A6FF"/>
<stop offset="1" stop-color="#5A78FF"/>
</linearGradient>
<linearGradient id="paint6_linear_332_4633" x1="20.8761" y1="69.0206" x2="111.777" y2="69.0206" gradientUnits="userSpaceOnUse">
<stop stop-color="#7A1AD6"/>
<stop offset="1" stop-color="#B063F9"/>
</linearGradient>
</defs>
</svg>
