<svg width="16" height="16" viewBox="0 0 16 16" fill="none" xmlns="http://www.w3.org/2000/svg">
<path d="M14.6667 10.7933C14.6667 13.22 13.22 14.6666 10.7934 14.6666H10C9.63337 14.6666 9.33337 14.3666 9.33337 14V10.1533C9.33337 9.97332 9.48003 9.81999 9.66003 9.81999L10.8334 9.79999C10.9267 9.79332 11.0067 9.72666 11.0267 9.63332L11.2601 8.35999C11.2801 8.23999 11.1867 8.12665 11.06 8.12665L9.64004 8.14665C9.45337 8.14665 9.30672 7.99999 9.30005 7.81999L9.27338 6.18665C9.27338 6.07998 9.36003 5.98665 9.47337 5.98665L11.0734 5.95998C11.1867 5.95998 11.2734 5.87332 11.2734 5.75999L11.2467 4.15997C11.2467 4.04664 11.16 3.95998 11.0467 3.95998L9.2467 3.98665C8.14004 4.00665 7.26005 4.91331 7.28005 6.01998L7.31337 7.85331C7.32004 8.03998 7.17338 8.18665 6.98671 8.19332L6.18671 8.20665C6.07337 8.20665 5.98671 8.2933 5.98671 8.40664L6.00671 9.67332C6.00671 9.78665 6.09337 9.87331 6.20671 9.87331L7.00671 9.85999C7.19338 9.85999 7.34003 10.0066 7.3467 10.1866L7.4067 13.9867C7.41336 14.36 7.11336 14.6666 6.74003 14.6666H5.20671C2.78004 14.6666 1.33337 13.22 1.33337 10.7866V5.20664C1.33337 2.77998 2.78004 1.33331 5.20671 1.33331H10.7934C13.22 1.33331 14.6667 2.77998 14.6667 5.20664V10.7933Z" fill="#434E58"/>
</svg>
