<svg width="24" height="25" viewBox="0 0 24 25" fill="none" xmlns="http://www.w3.org/2000/svg">
<path d="M22.5 11H1.5C0.671578 11 0 11.6716 0 12.5C0 13.3284 0.671578 14 1.5 14H22.5C23.3284 14 24 13.3284 24 12.5C24 11.6716 23.3284 11 22.5 11Z" fill="white"/>
<path d="M1.5 7H22.5C23.3284 7 24 6.32842 24 5.5C24 4.67158 23.3284 4 22.5 4H1.5C0.671578 4 0 4.67158 0 5.5C0 6.32842 0.671578 7 1.5 7Z" fill="white"/>
<path d="M22.5 18H1.5C0.671578 18 0 18.6716 0 19.5C0 20.3284 0.671578 21 1.5 21H22.5C23.3284 21 24 20.3284 24 19.5C24 18.6716 23.3284 18 22.5 18Z" fill="white"/>
</svg>
