<svg width="16" height="16" viewBox="0 0 16 16" fill="none" xmlns="http://www.w3.org/2000/svg">
<path d="M10.7934 1.33331H5.20671C2.78004 1.33331 1.33337 2.77998 1.33337 5.20665V10.7866C1.33337 13.22 2.78004 14.6666 5.20671 14.6666H10.7867C13.2134 14.6666 14.66 13.22 14.66 10.7933V5.20665C14.6667 2.77998 13.22 1.33331 10.7934 1.33331ZM8.00004 10.5866C6.57337 10.5866 5.41337 9.42665 5.41337 7.99998C5.41337 6.57331 6.57337 5.41331 8.00004 5.41331C9.42671 5.41331 10.5867 6.57331 10.5867 7.99998C10.5867 9.42665 9.42671 10.5866 8.00004 10.5866ZM11.9467 4.58665C11.9134 4.66665 11.8667 4.73998 11.8067 4.80665C11.74 4.86665 11.6667 4.91331 11.5867 4.94665C11.5067 4.97998 11.42 4.99998 11.3334 4.99998C11.1534 4.99998 10.9867 4.93331 10.86 4.80665C10.8 4.73998 10.7534 4.66665 10.72 4.58665C10.6867 4.50665 10.6667 4.41998 10.6667 4.33331C10.6667 4.24665 10.6867 4.15998 10.72 4.07998C10.7534 3.99331 10.8 3.92665 10.86 3.85998C11.0134 3.70665 11.2467 3.63331 11.46 3.67998C11.5067 3.68665 11.5467 3.69998 11.5867 3.71998C11.6267 3.73331 11.6667 3.75331 11.7067 3.77998C11.74 3.79998 11.7734 3.83331 11.8067 3.85998C11.8667 3.92665 11.9134 3.99331 11.9467 4.07998C11.98 4.15998 12 4.24665 12 4.33331C12 4.41998 11.98 4.50665 11.9467 4.58665Z" fill="#434E58"/>
</svg>
