<svg width="24" height="25" viewBox="0 0 24 25" fill="none" xmlns="http://www.w3.org/2000/svg">
<path d="M12.9401 11.5596L5.87012 18.6296" stroke="white" stroke-linecap="round" stroke-linejoin="round"/>
<path d="M6.63295 13.4986L3.16995 12.6806C2.78895 12.5906 2.65495 12.1176 2.93095 11.8406L5.68495 9.0866C5.86995 8.9016 6.12095 8.7956 6.38395 8.7936L9.48895 8.7666" stroke="white" stroke-linecap="round" stroke-linejoin="round"/>
<path fill-rule="evenodd" clip-rule="evenodd" d="M19.8791 9.47463L20.6871 5.58663C20.9071 4.52863 19.9711 3.59263 18.9131 3.81263L15.0251 4.62063C13.8801 4.85863 12.8301 5.42563 12.0041 6.25263L8.81407 9.44163C7.59707 10.6586 6.80507 12.2366 6.55507 13.9396L6.54407 14.0126C6.38607 15.0996 6.75007 16.1966 7.52607 16.9736V16.9736C8.30207 17.7496 9.40007 18.1136 10.4871 17.9546L10.5601 17.9436C12.2631 17.6946 13.8411 16.9016 15.0581 15.6846L18.2471 12.4956C19.0741 11.6696 19.6411 10.6196 19.8791 9.47463V9.47463Z" stroke="white" stroke-linecap="round" stroke-linejoin="round"/>
<path d="M13.3999 5.21387C15.7109 6.78987 17.7099 8.78887 19.2859 11.0999" stroke="white" stroke-linecap="round" stroke-linejoin="round"/>
<path d="M11 17.8667L11.818 21.3297C11.908 21.7107 12.381 21.8447 12.658 21.5687L15.412 18.8147C15.597 18.6297 15.703 18.3787 15.705 18.1157L15.732 15.0107" stroke="white" stroke-linecap="round" stroke-linejoin="round"/>
</svg>
