<svg width="24" height="25" viewBox="0 0 24 25" fill="none" xmlns="http://www.w3.org/2000/svg">
<path d="M12 2.5C6.48 2.5 2 6.98 2 12.5C2 18.02 6.48 22.5 12 22.5C17.52 22.5 22 18.02 22 12.5C22 6.98 17.52 2.5 12 2.5ZM12 20.25C7.73 20.25 4.25 16.77 4.25 12.5C4.25 11.14 4.61 9.81 5.28 8.64C5.48 8.28 5.94 8.16 6.3 8.36L12.37 11.85C12.73 12.06 12.85 12.51 12.65 12.87C12.44 13.23 11.99 13.35 11.63 13.15L8.72 11.48C8.62 11.81 8.55 12.15 8.55 12.5C8.55 14.4 10.1 15.95 12 15.95C13.9 15.95 15.45 14.4 15.45 12.5C15.45 10.6 13.9 9.05 12 9.05C11.49 9.05 10.99 9.16 10.53 9.38C10.15 9.56 9.71 9.4 9.53 9.02C9.35 8.65 9.51 8.2 9.89 8.02C10.55 7.71 11.26 7.55 12 7.55C14.73 7.55 16.95 9.77 16.95 12.5C16.95 15.23 14.73 17.45 12 17.45C9.27 17.45 7.05 15.23 7.05 12.5C7.05 11.89 7.17 11.28 7.39 10.71L6.24 10.06C5.92 10.83 5.75 11.66 5.75 12.5C5.75 15.95 8.55 18.75 12 18.75C15.45 18.75 18.25 15.95 18.25 12.5C18.25 9.05 15.45 6.25 12 6.25C10.64 6.25 9.34 6.68 8.25 7.5C7.92 7.75 7.45 7.68 7.2 7.35C6.95 7.02 7.02 6.55 7.35 6.3C8.7 5.29 10.31 4.75 12 4.75C16.27 4.75 19.75 8.23 19.75 12.5C19.75 16.77 16.27 20.25 12 20.25Z" fill="white"/>
</svg>
