<svg width="64" height="64" viewBox="0 0 64 64" fill="none" xmlns="http://www.w3.org/2000/svg">
<rect width="64" height="64" rx="32" fill="#7A1AD6"/>
<path d="M35.8 21.2667V26.3334H33.8V21.2667C33.8 20.9067 33.48 20.7334 33.2666 20.7334C33.2 20.7334 33.1333 20.7467 33.0666 20.7734L22.4933 24.7601C21.7866 25.0267 21.3333 25.6934 21.3333 26.4534V27.3467C20.12 28.2534 19.3333 29.7067 19.3333 31.3467V26.4534C19.3333 24.8667 20.3066 23.4534 21.7866 22.8934L32.3733 18.8934C32.6666 18.7867 32.9733 18.7334 33.2666 18.7334C34.6 18.7334 35.8 19.8134 35.8 21.2667Z" fill="white"/>
<path d="M44.6667 35.3337V36.667C44.6667 37.027 44.3867 37.3203 44.0133 37.3337H42.0667C41.36 37.3337 40.72 36.8137 40.6667 36.1203C40.6267 35.707 40.7867 35.3203 41.0533 35.0537C41.2933 34.8003 41.6267 34.667 41.9867 34.667H44C44.3867 34.6803 44.6667 34.9737 44.6667 35.3337Z" fill="white"/>
<path d="M41.9733 33.2663H43.3333C44.0666 33.2663 44.6666 32.6663 44.6666 31.933V31.3463C44.6666 28.5863 42.4133 26.333 39.6533 26.333H24.3466C23.2133 26.333 22.1733 26.7063 21.3333 27.3463C20.12 28.253 19.3333 29.7063 19.3333 31.3463V40.3197C19.3333 43.0797 21.5866 45.333 24.3466 45.333H39.6533C42.4133 45.333 44.6666 43.0797 44.6666 40.3197V40.0663C44.6666 39.333 44.0666 38.733 43.3333 38.733H42.1733C40.8933 38.733 39.6666 37.9463 39.3333 36.7063C39.0533 35.693 39.3866 34.7197 40.0533 34.0663C40.5466 33.5597 41.2266 33.2663 41.9733 33.2663ZM34.6666 32.9997H25.3333C24.7866 32.9997 24.3333 32.5463 24.3333 31.9997C24.3333 31.453 24.7866 30.9997 25.3333 30.9997H34.6666C35.2133 30.9997 35.6666 31.453 35.6666 31.9997C35.6666 32.5463 35.2133 32.9997 34.6666 32.9997Z" fill="white"/>
</svg>
